<svg width="28" height="28" viewBox="0 0 34 34" fill="none" xmlns="http://www.w3.org/2000/svg">
<g clip-path="url(#clip0_2241_2031)">
<path d="M7.71284 3.77783H29.1204C29.3576 3.85961 29.5726 3.99367 29.7489 4.16975C29.9252 4.34582 30.0582 4.55924 30.1377 4.79366C30.2172 5.02807 30.241 5.27726 30.2074 5.52214C30.1738 5.76701 30.0836 6.00108 29.9438 6.2064L21.7101 15.1112V26.4445L15.1232 21.5874V15.1112L6.88947 6.2064C6.74965 6.00108 6.65948 5.76701 6.62587 5.52214C6.59227 5.27726 6.61611 5.02807 6.69559 4.79366C6.77506 4.55924 6.90806 4.34582 7.08438 4.16975C7.2607 3.99367 7.47568 3.85961 7.71284 3.77783Z" stroke="#303030" stroke-width="2.5" stroke-linecap="round" stroke-linejoin="round"/>
</g>
<defs>
<clipPath id="clip0_2241_2031">
<rect width="34" height="34" fill="white"/>
</clipPath>
</defs>
</svg>
